<svg width="160" height="55" viewBox="0 0 160 55" fill="none" xmlns="http://www.w3.org/2000/svg">
<g clip-path="url(#clip0_532_817)">
<path d="M139.359 48.9505C140.7 48.9505 142.053 48.9751 143.394 48.9505C144.476 48.9258 144.907 49.394 144.907 50.4659C144.907 55.1109 145.091 54.1499 141.45 54.2115C138.24 54.2607 135.029 54.2484 131.818 54.2115C128.14 54.1745 125.077 51.4393 124.782 47.7677C124.598 45.476 124.573 43.1351 124.758 40.8434C125.053 37.1225 127.944 34.3257 131.646 34.1655C134.906 34.0177 138.178 34.067 141.45 34.1409C143.578 34.1902 144.734 35.3976 144.882 37.5661C144.968 38.9706 145.017 40.3999 144.87 41.7921C144.796 42.5067 144.378 43.2952 143.873 43.8127C142.336 45.4267 140.675 46.9545 139.076 48.5069C139.174 48.6671 139.273 48.8149 139.359 48.9751V48.9505ZM140.023 39.6236C136.825 39.6236 134.205 39.5251 131.597 39.6976C131.068 39.7345 130.244 40.7695 130.17 41.3978C129.973 43.2336 130.035 45.1064 130.133 46.9545C130.158 47.4843 130.564 48.1496 130.994 48.433C131.228 48.5809 132.003 48.1373 132.36 47.7923C134.537 45.6732 136.677 43.5293 138.793 41.3609C139.15 40.9913 139.396 40.5107 140.011 39.6113L140.023 39.6236Z" fill="#40403F"/>
<path d="M87.608 54.2115C86.2057 54.2115 84.7911 54.2607 83.3765 54.2115C80.7071 54.0883 78.2961 51.9568 77.7426 49.394C77.5212 48.3468 77.7426 47.6568 78.9235 47.7307C80.4857 47.817 82.2202 47.127 83.4749 48.7287C83.6594 48.9628 84.2129 48.9628 84.582 48.9628C86.6116 48.9875 88.6413 49.0491 90.671 48.9258C91.2245 48.8889 91.7535 48.2605 92.2947 47.9032C91.7658 47.5952 91.2614 47.0531 90.7202 47.0284C88.1985 46.8806 85.6399 47.0654 83.1304 46.782C79.2925 46.3508 76.8692 42.7039 77.7672 39.0569C78.4314 36.3586 80.7071 34.338 83.5856 34.2025C86.2795 34.067 88.998 34.067 91.692 34.2025C94.6073 34.3627 97.0183 36.4819 97.535 39.0199C97.7687 40.1411 97.4981 40.8064 96.2065 40.6956C94.6934 40.5724 93.0328 41.213 91.7781 39.7715C91.6305 39.599 91.2491 39.5867 90.9785 39.5867C88.7889 39.5867 86.587 39.5251 84.3851 39.6237C83.9423 39.636 83.5241 40.2397 83.0812 40.5724C83.5364 40.8804 83.9669 41.4471 84.422 41.4595C86.6731 41.558 88.9365 41.4594 91.1753 41.5334C95.1732 41.6812 97.7933 44.5396 97.6088 48.47C97.4735 51.4393 94.9395 54.0513 91.9626 54.1991C90.4988 54.2731 89.035 54.1991 87.5711 54.1991L87.608 54.2115Z" fill="#40403F"/>
<path d="M69.366 34.4243C69.366 33.1306 69.3906 31.8492 69.366 30.5679C69.3414 29.6684 69.6736 29.2249 70.633 29.2249C75.4305 29.2249 74.5817 28.843 74.6309 32.9458C74.6678 36.8884 74.5694 40.8434 74.6555 44.7737C74.7908 50.9218 70.018 54.5564 65.1837 54.2977C61.7394 54.1129 58.4919 54.002 56.29 50.9464C53.5961 47.2132 53.6453 43.0611 55.3551 39.0569C56.9174 35.4099 60.1402 33.993 64.0151 34.1162C65.688 34.1655 67.361 34.3134 69.366 34.4366V34.4243ZM64.8515 48.9505C66.5491 49.086 68.505 48.8642 69.0216 46.5972C69.366 45.0694 69.2799 43.3692 69.0216 41.8044C68.7756 40.3259 67.5578 39.5374 66.0447 39.5744C63.9905 39.636 61.6041 38.7858 60.214 41.1145C57.9506 44.9093 60.2386 48.9505 64.8638 48.9382L64.8515 48.9505Z" fill="#40403F"/>
<path d="M112.555 48.8026C114.117 47.1516 115.507 45.7717 116.774 44.2686C117.155 43.8127 117.242 43.0242 117.242 42.3835C117.278 38.8351 117.303 35.2744 117.242 31.7137C117.229 30.4077 117.672 29.9025 119.013 29.9395C122.998 30.0504 122.691 29.3974 122.703 33.5002C122.703 36.8884 122.679 40.2766 122.703 43.6525C122.716 45.2789 122.187 46.5726 120.981 47.6938C118.89 49.6651 116.909 51.7596 114.855 53.7679C113.195 55.3942 111.829 55.3819 110.181 53.7679C108.016 51.6364 105.789 49.5295 103.76 47.2748C103.034 46.474 102.468 45.2173 102.431 44.1577C102.283 40.0425 102.406 35.9151 102.345 31.7999C102.333 30.4323 102.776 29.8902 104.19 29.9272C108.2 30.0257 107.61 29.6068 107.647 33.34C107.671 36.334 107.573 39.3279 107.696 42.3096C107.733 43.1597 108.188 44.1207 108.729 44.7984C109.787 46.1044 111.042 47.2502 112.53 48.7903H112.543L112.555 48.8026Z" fill="#F05247"/>
<path d="M0.0121237 44.6382C0.0121237 42.1494 -0.0124784 39.6729 0.0121237 37.1841C0.073629 32.8226 3.50563 29.3111 7.8356 29.2372C11.3906 29.1756 14.9456 29.2495 18.4883 29.2003C19.7307 29.1879 20.1859 29.6315 20.1736 30.8759C20.1244 35.1635 20.4565 34.4859 16.594 34.5352C13.8877 34.5598 11.1815 34.5598 8.47526 34.5352C7.09754 34.5352 6.06425 35.0403 5.4984 36.334C4.69883 38.1698 5.30158 39.0939 7.26975 39.0939C10.997 39.0939 14.7119 39.1308 18.4391 39.0815C19.7799 39.0569 20.2228 39.5744 20.1982 40.868C20.1367 45.0202 20.4688 44.3425 16.84 44.3795C13.5679 44.4164 10.2958 44.4411 7.02373 44.3671C5.71982 44.3425 5.19087 44.7121 5.25238 46.0797C5.35079 48.162 5.22778 50.2565 5.28928 52.351C5.33849 53.6817 4.96945 54.2854 3.49333 54.2484C-0.639833 54.1252 0.061328 54.7166 -0.000177378 50.7493C-0.0124784 48.7041 0.0121237 46.6835 0.0121237 44.6382Z" fill="#F05247"/>
<path d="M31.4655 47.472C31.4655 45.9442 31.4655 44.4287 31.4655 42.901C31.4409 40.5231 32.265 38.5024 33.9011 36.7775C38.7969 31.6151 49.0929 33.6727 51.2087 40.2643C51.4547 41.0036 51.59 41.8167 51.6023 42.5929C51.6392 45.9196 51.59 49.2585 51.6392 52.5851C51.6638 53.8418 51.1964 54.2731 49.954 54.2238C45.7593 54.1006 46.2144 54.8768 46.1775 50.4413C46.1652 48.0141 46.2021 45.5869 46.1652 43.1597C46.1283 40.6463 45.1566 39.636 42.7086 39.5497C38.6493 39.4142 36.4105 39.2047 36.718 45.2912C36.841 47.7677 36.718 50.2565 36.7426 52.7453C36.7549 53.8295 36.3367 54.2484 35.2419 54.2238C30.6536 54.1498 31.5516 54.7043 31.4532 50.6877C31.4286 49.6158 31.4532 48.5439 31.4532 47.472H31.4655Z" fill="#40403F"/>
<path d="M149.556 44.8477V41.9646C149.556 40.7325 149.826 39.3526 147.846 39.3896C147.612 39.3896 147.206 38.7735 147.182 38.4162C147.096 37.3443 147.096 36.2724 147.182 35.2128C147.206 34.8309 147.489 34.2764 147.797 34.1532C149.261 33.5741 149.667 32.453 149.556 31.0361C149.433 29.6192 150.073 29.0647 151.438 29.2249C151.487 29.2249 151.549 29.2249 151.61 29.2249C155.374 29.2372 154.808 28.9908 154.808 32.3421C154.808 33.4756 155.005 34.1532 156.358 34.1286C160.295 34.067 159.815 33.6111 159.889 38.0096C159.901 39.2417 159.311 39.5251 158.24 39.562C154.821 39.6976 154.821 39.7222 154.821 43.1597C154.821 44.6259 154.858 46.0921 154.821 47.5582C154.796 48.5562 155.165 49.0614 156.186 48.9628H156.358C160.184 49.1107 160.282 49.1846 159.815 53.004C159.766 53.4476 159.077 54.1129 158.646 54.1622C157.133 54.2977 155.608 54.2977 154.095 54.1868C151.549 54.002 149.777 51.8952 149.593 48.9135C149.519 47.5706 149.593 46.2153 149.593 44.86H149.58L149.556 44.8477Z" fill="#40403F"/>
<path d="M28.2799 45.4267C28.2799 47.7307 28.2307 50.047 28.2922 52.351C28.3291 53.6817 27.9724 54.2977 26.5086 54.2361C22.4738 54.0882 22.8429 54.8644 22.8183 50.5275C22.806 46.5356 22.8429 42.5313 22.806 38.5394C22.7937 37.1595 23.1504 36.4818 24.688 36.4942C29.1164 36.5311 28.1815 36.5558 28.2676 40.0056C28.3045 41.8044 28.2676 43.6032 28.2676 45.4144L28.2799 45.4267Z" fill="#40403F"/>
<path d="M28.2801 31.9848C28.2801 33.685 27.3575 34.5475 25.5001 34.5475C23.6426 34.5475 22.7569 33.5988 22.8184 31.6891C22.8184 30.0504 23.7902 29.2249 25.7092 29.2372C27.419 29.2372 28.2801 30.1613 28.2801 31.9971V31.9848Z" fill="#40403F"/>
<path d="M90.3517 20.0706C90.0073 19.7379 89.5522 19.356 89.1832 18.9124C88.5558 18.1485 87.7808 17.705 86.7844 17.6064C83.537 17.2614 81.8394 13.7746 83.6108 11.0148C84.275 9.97985 85.2714 9.35149 86.5015 9.16667C87.0182 9.09275 87.4364 8.89562 87.8054 8.52599C89.4169 6.92429 91.8525 6.57931 93.833 7.66354C95.8134 8.74777 96.8098 11.0148 96.3178 13.2572C96.2071 13.75 96.2809 14.2059 96.4654 14.6617C97.105 16.2511 96.9205 17.7543 95.8257 19.0603C94.7063 20.3909 93.2425 20.8468 91.5327 20.4525C91.1759 20.3663 90.8315 20.2061 90.3641 20.0459L90.3517 20.0706Z" fill="#F05247"/>
<path d="M100.217 6.71484C100.008 7.02286 99.8361 7.36784 99.6024 7.65122C98.8398 8.526 97.6097 8.67385 96.6256 8.02084C95.7399 7.42945 95.3955 6.22201 95.8752 5.2117C96.1089 4.71887 96.3795 4.22604 96.6748 3.77017C97.3513 2.72291 98.6306 2.46417 99.7377 3.11717C100.722 3.69625 101.091 5.02689 100.55 6.06184C100.439 6.28361 100.316 6.48075 100.205 6.6902C100.205 6.6902 100.217 6.6902 100.23 6.6902L100.217 6.71484Z" fill="#40403F"/>
<path d="M95.248 3.96731C95.0266 4.29997 94.8544 4.66959 94.5838 4.96529C93.8088 5.80311 92.4803 5.90167 91.5946 5.22403C90.6966 4.54639 90.4383 3.31431 90.9796 2.304C91.1887 1.92206 91.3855 1.55243 91.5946 1.18281C92.1482 0.209468 93.3414 -0.234081 94.3501 0.147864C95.4449 0.56677 96.0722 1.72492 95.7524 2.8338C95.6417 3.22806 95.4203 3.58536 95.2357 3.96731H95.248Z" fill="#40403F"/>
<path d="M84.8414 4.12747C85.1981 3.28966 85.6409 2.68594 86.4651 2.45185C87.3508 2.19311 88.2734 2.47649 88.8515 3.17877C89.442 3.9057 89.5527 4.87904 89.1098 5.69221C88.8392 6.18504 88.5809 6.70252 88.2365 7.12142C87.5599 7.9346 86.3913 8.13173 85.481 7.6389C84.5707 7.14607 84.0787 5.98791 84.3985 4.98993C84.5092 4.65727 84.7306 4.34925 84.866 4.13979L84.8414 4.12747Z" fill="#40403F"/>
<path d="M101.657 13.405C101.399 13.9102 101.103 14.4646 100.476 14.7603C99.6149 15.1792 98.5939 15.0437 97.905 14.3907C97.2162 13.75 96.9702 12.6904 97.3761 11.8403C97.6467 11.2612 97.9665 10.6821 98.3725 10.2016C99.0859 9.33917 100.439 9.21597 101.312 9.86897C102.235 10.5343 102.53 11.7664 102.014 12.7644C101.915 12.9615 101.804 13.134 101.669 13.405H101.657Z" fill="#40403F"/>
<path d="M69.6491 20.0706C69.9935 19.7379 70.4486 19.356 70.8177 18.9124C71.445 18.1485 72.22 17.705 73.2164 17.6064C76.4638 17.2614 78.1614 13.7746 76.39 11.0148C75.7258 9.97985 74.7294 9.35149 73.4993 9.16667C72.9826 9.09275 72.5644 8.89562 72.1954 8.52599C70.5839 6.92429 68.1483 6.57931 66.1679 7.66354C64.1874 8.74777 63.191 11.0148 63.683 13.2572C63.7937 13.75 63.7199 14.2059 63.5354 14.6617C62.8958 16.2511 63.0803 17.7543 64.1751 19.0603C65.2945 20.3909 66.7583 20.8468 68.4681 20.4525C68.8249 20.3663 69.1693 20.2061 69.6368 20.0459L69.6491 20.0706Z" fill="#F05247"/>
<path d="M59.783 6.71484C59.9922 7.02286 60.1644 7.36784 60.3981 7.65122C61.1608 8.526 62.3909 8.67385 63.375 8.02084C64.2606 7.42945 64.6051 6.22201 64.1253 5.2117C63.8916 4.71887 63.621 4.22604 63.3257 3.77017C62.6492 2.72291 61.3699 2.46417 60.2628 3.11717C59.2787 3.69625 58.9097 5.02689 59.4509 6.06184C59.5616 6.28361 59.6846 6.48075 59.7953 6.6902C59.7953 6.6902 59.783 6.6902 59.7707 6.6902L59.783 6.71484Z" fill="#40403F"/>
<path d="M64.7528 3.96731C64.9743 4.29997 65.1465 4.66959 65.4171 4.96529C66.1921 5.80311 67.5206 5.90167 68.4063 5.22403C69.3042 4.54639 69.5626 3.31431 69.0213 2.304C68.8122 1.92206 68.6154 1.55243 68.4063 1.18281C67.8527 0.209468 66.6595 -0.234081 65.6508 0.147864C64.556 0.56677 63.9287 1.72492 64.2485 2.8338C64.3592 3.22806 64.5806 3.58536 64.7652 3.96731H64.7528Z" fill="#40403F"/>
<path d="M75.1592 4.12747C74.8025 3.28966 74.3596 2.68594 73.5355 2.45185C72.6498 2.19311 71.7272 2.47649 71.1491 3.17877C70.5586 3.9057 70.4479 4.87904 70.8907 5.69221C71.1614 6.18504 71.4197 6.70252 71.7641 7.12142C72.4407 7.9346 73.6093 8.13173 74.5196 7.6389C75.4298 7.14607 75.9219 5.98791 75.602 4.98993C75.4913 4.65727 75.2699 4.34925 75.1346 4.13979L75.1592 4.12747Z" fill="#40403F"/>
<path d="M58.344 13.405C58.6023 13.9102 58.8975 14.4646 59.5249 14.7603C60.386 15.1792 61.4069 15.0437 62.0958 14.3907C62.7847 13.75 63.0307 12.6904 62.6248 11.8403C62.3541 11.2612 62.0343 10.6821 61.6284 10.2016C60.9149 9.33917 59.5618 9.21597 58.6884 9.86897C57.7658 10.5343 57.4706 11.7664 57.9872 12.7644C58.0857 12.9615 58.1964 13.134 58.3317 13.405H58.344Z" fill="#40403F"/>
</g>
<defs>
<clipPath id="clip0_532_817">
<rect width="160" height="55" fill="white"/>
</clipPath>
</defs>
</svg>
